<svg
    xmlns="http://www.w3.org/2000/svg"
    xmlns:xlink="http://www.w3.org/1999/xlink" version="1.1" style="enable-background:new 0 0 40 40;" xml:space="preserve" width="40" height="40" x="0px" y="0px"
	 viewBox="0 0 40 40">
    <rect id="backgroundrect" width="100%" height="100%" x="0" y="0" fill="none" stroke="none"/>
    <style type="text/css">
	.st0{display:none;fill:#FFFFFF;}
	.st1{fill:#797979;}
	.st2{enable-background:new    ;}
	.st3{fill:#40A9AA;}
</style>
    <g class="currentLayer" style="">
        <title>Layer 1</title>
        <rect x="5.800000190734863" y="5.800000190734863" class="st0" width="28.200000762939453" height="28.200000762939453" id="svg_1"/>
        <path class="st1" d="M4.285470087826252,4.556410263478756 v31.3 h31.3 V4.556410263478756 H4.285470087826252 zM33.68547008782625,33.85641026347876 H6.285470087826252 V6.556410263478756 h27.4 V33.85641026347876 z" id="svg_3"/>
        <path fill="#e98a8a" stroke-dashoffset="" fill-rule="nonzero" marker-start="" marker-mid="" marker-end="" id="svg_11" d="M22.34207727118093,9.898929818333377 L24.242527523041215,9.898929818333377 L24.829781274558503,8.093510026362294 L25.41703535999576,9.898929818333377 L27.317485277935706,9.898929818333377 L25.77999154104852,11.014727840808181 L26.367275679285616,12.82014763277925 L24.829781274558503,11.704319223584292 L23.29228720375104,12.82014763277925 L23.8795715089484,11.014727840808181 L22.34207727118093,9.898929818333377 z" style="color: rgb(64, 169, 170);" class="" fill-opacity="1" transform="rotate(33.268489837646484 24.829782485961925,10.456828117370604) "/>
        <path fill="#e98a8a" stroke-dashoffset="" fill-rule="nonzero" marker-start="" marker-mid="" marker-end="" d="M10.538868536847836,11.426706361254343 L12.534859169711133,11.426706361254343 L13.151635634127903,9.530523606860818 L13.768412449251624,11.426706361254343 L15.764402731407579,11.426706361254343 L14.149615344098258,12.598598337298988 L14.766423722851123,14.494781091692484 L13.151635634127903,13.322857201311361 L11.536847896111297,14.494781091692484 L12.153656450217944,12.598598337298988 L10.538868536847836,11.426706361254343 z" style="color: rgb(64, 169, 170);" class="" fill-opacity="1" transform="rotate(-84.4435043334961 13.151636123657227,12.012652397155763) " id="svg_14"/>
        <path fill="#e98a8a" stroke-dashoffset="" fill-rule="nonzero" marker-start="" marker-mid="" marker-end="" d="M23.408001892142856,27.900585945539397 L25.36230714982218,27.900585945539397 L25.966202512544108,26.044004123250893 L26.57009821864863,27.900585945539397 L28.524403132944983,27.900585945539397 L26.94333986085647,29.04800347972435 L27.547266471397805,30.904585302012826 L25.966202512544108,29.757136520008103 L24.38513889707268,30.904585302012826 L24.98906567930561,29.04800347972435 L23.408001892142856,27.900585945539397 z" style="color: rgb(64, 169, 170);" class="" fill-opacity="1" transform="rotate(-84.4435043334961 25.966201782226566,28.47429466247559) " id="svg_16"/>
        <path fill="#e98a8a" stroke-dashoffset="" fill-rule="nonzero" marker-start="" marker-mid="" marker-end="" d="M28.204594049818517,18.502015574525537 L29.9872733496913,18.502015574525537 L30.53813497081385,16.808477694448413 L31.088996905163334,18.502015574525537 L32.871675891808835,18.502015574525537 L31.429460682150015,19.548667564262043 L31.980350806926538,21.24220544433914 L30.53813497081385,20.19552495094832 L29.0959194479278,21.24220544433914 L29.646809729318058,19.548667564262043 L28.204594049818517,18.502015574525537 z" style="color: rgb(64, 169, 170);" class="" fill-opacity="1" transform="rotate(36.52561950683594 30.538135528564446,19.025341033935547) " id="svg_15"/>
        <rect fill="" stroke-dashoffset="" fill-rule="nonzero" id="svg_17" x="13.234845034971963" y="17.789933418431154" width="2.1512986007131745" height="17.1683130019403" style="color: rgb(64, 169, 170);" class="" transform="rotate(45.237548828125 14.310493469238283,26.37409019470215) "/>
        <path fill="#40a9aa" stroke-dashoffset="" fill-rule="nonzero" marker-start="" marker-mid="" marker-end="" id="svg_8" d="M13.434004329961502,18.557855296732697 L18.729045073403363,18.557855296732697 L20.36525340770688,13.52758873324515 L22.00146267237971,18.557855296732697 L27.2965024854526,18.557855296732697 L23.012732378007364,21.666695417474205 L24.649025375890318,26.696961980961643 L20.36525340770688,23.588037196640713 L16.081482369892825,26.696961980961643 L17.71777583296013,21.666695417474205 L13.434004329961502,18.557855296732697 z" style="color: rgb(0, 0, 0);" class="" fill-opacity="1" transform="rotate(42.89924240112305 20.36525535583496,20.112276077270508) "/>
    </g>
</svg>
